<svg aria-hidden="true" style="position: absolute; width: 0; height: 0; overflow: hidden;" version="1.1" xmlns="http://www.w3.org/2000/svg" xmlns:xlink="http://www.w3.org/1999/xlink">
<defs>
<symbol id="icon-check" viewBox="0 0 28 28">
<title>check</title>
<path d="M26.109 8.844c0 0.391-0.156 0.781-0.438 1.062l-13.438 13.438c-0.281 0.281-0.672 0.438-1.062 0.438s-0.781-0.156-1.062-0.438l-7.781-7.781c-0.281-0.281-0.438-0.672-0.438-1.062s0.156-0.781 0.438-1.062l2.125-2.125c0.281-0.281 0.672-0.438 1.062-0.438s0.781 0.156 1.062 0.438l4.594 4.609 10.25-10.266c0.281-0.281 0.672-0.438 1.062-0.438s0.781 0.156 1.062 0.438l2.125 2.125c0.281 0.281 0.438 0.672 0.438 1.062z"></path>
</symbol>
<symbol id="icon-times-circle" viewBox="0 0 24 28">
<title>times-circle</title>
<path d="M17.953 17.531c0-0.266-0.109-0.516-0.297-0.703l-2.828-2.828 2.828-2.828c0.187-0.187 0.297-0.438 0.297-0.703s-0.109-0.531-0.297-0.719l-1.406-1.406c-0.187-0.187-0.453-0.297-0.719-0.297s-0.516 0.109-0.703 0.297l-2.828 2.828-2.828-2.828c-0.187-0.187-0.438-0.297-0.703-0.297s-0.531 0.109-0.719 0.297l-1.406 1.406c-0.187 0.187-0.297 0.453-0.297 0.719s0.109 0.516 0.297 0.703l2.828 2.828-2.828 2.828c-0.187 0.187-0.297 0.438-0.297 0.703s0.109 0.531 0.297 0.719l1.406 1.406c0.187 0.187 0.453 0.297 0.719 0.297s0.516-0.109 0.703-0.297l2.828-2.828 2.828 2.828c0.187 0.187 0.438 0.297 0.703 0.297s0.531-0.109 0.719-0.297l1.406-1.406c0.187-0.187 0.297-0.453 0.297-0.719zM24 14c0 6.625-5.375 12-12 12s-12-5.375-12-12 5.375-12 12-12 12 5.375 12 12z"></path>
</symbol>
</defs>
</svg>
